<svg xmlns="http://www.w3.org/2000/svg" width="800" height="1120" viewBox="0 0 200 280">
      <rect width="100%" height="100%" fill="#000000"/>
      <line x1="100" y1="40" x2="100" y2="160" stroke="#D4AF37" stroke-width="2"/>
      <circle cx="100" cy="40" r="4" fill="#D4AF37"/>
      <line x1="40" y1="40" x2="40" y2="160" stroke="#D4AF37" stroke-width="2"/>
      <line x1="160" y1="40" x2="160" y2="160" stroke="#D4AF37" stroke-width="2"/>
      <circle cx="40" cy="40" r="4" fill="#D4AF37"/>
      <circle cx="160" cy="40" r="4" fill="#D4AF37"/>
      <circle cx="40" cy="160" r="4" fill="#D4AF37"/>
      <circle cx="160" cy="160" r="4" fill="#D4AF37"/>
      <line x1="40" y1="40" x2="100" y2="70" stroke="#D4AF37" stroke-width="1.5" opacity="0.7"/>
      <line x1="160" y1="40" x2="100" y2="70" stroke="#D4AF37" stroke-width="1.5" opacity="0.7"/>
      <circle cx="40" cy="100" r="4" fill="#D4AF37"/>
      <circle cx="100" cy="100" r="5" fill="#D4AF37"/>
      <circle cx="160" cy="100" r="4" fill="#D4AF37"/>
      <line x1="40" y1="100" x2="160" y2="100" stroke="#D4AF37" stroke-width="2.5"/>
      <line x1="50" y1="70" x2="90" y2="70" stroke="#D4AF37" stroke-width="1.5" opacity="0.6"/>
      <line x1="110" y1="70" x2="150" y2="70" stroke="#D4AF37" stroke-width="1.5" opacity="0.6"/>
      <line x1="50" y1="130" x2="90" y2="130" stroke="#D4AF37" stroke-width="1.5" opacity="0.6"/>
      <line x1="110" y1="130" x2="150" y2="130" stroke="#D4AF37" stroke-width="1.5" opacity="0.6"/>
      <circle cx="50" cy="70" r="3" fill="#D4AF37" opacity="0.8"/>
      <circle cx="90" cy="70" r="3" fill="#D4AF37" opacity="0.8"/>
      <circle cx="110" cy="70" r="3" fill="#D4AF37" opacity="0.8"/>
      <circle cx="150" cy="70" r="3" fill="#D4AF37" opacity="0.8"/>
      <circle cx="50" cy="130" r="3" fill="#D4AF37" opacity="0.8"/>
      <circle cx="90" cy="130" r="3" fill="#D4AF37" opacity="0.8"/>
      <circle cx="110" cy="130" r="3" fill="#D4AF37" opacity="0.8"/>
      <circle cx="150" cy="130" r="3" fill="#D4AF37" opacity="0.8"/>
      <line x1="50" y1="70" x2="40" y2="100" stroke="#D4AF37" stroke-width="1" opacity="0.5"/>
      <line x1="150" y1="70" x2="160" y2="100" stroke="#D4AF37" stroke-width="1" opacity="0.5"/>
      <line x1="50" y1="130" x2="40" y2="100" stroke="#D4AF37" stroke-width="1" opacity="0.5"/>
      <line x1="150" y1="130" x2="160" y2="100" stroke="#D4AF37" stroke-width="1" opacity="0.5"/>
      <line x1="40" y1="160" x2="100" y2="130" stroke="#D4AF37" stroke-width="1.5" opacity="0.7"/>
      <line x1="160" y1="160" x2="100" y2="130" stroke="#D4AF37" stroke-width="1.5" opacity="0.7"/>
      <circle cx="100" cy="160" r="4" fill="#D4AF37"/>
      <text x="100" y="230" text-anchor="middle" fill="#D4AF37" font-family="-apple-system, BlinkMacSystemFont, 'Segoe UI', sans-serif" font-size="28" font-weight="300" letter-spacing="8">HELIX</text>
    </svg>